<svg xmlns="http://www.w3.org/2000/svg" version="1.1" xmlns:xlink="http://www.w3.org/1999/xlink" xmlns:svgjs="http://svgjs.com/svgjs" width="1000" height="300" preserveAspectRatio="none" viewBox="0 0 1000 300"><g mask="url(&quot;#SvgjsMask1266&quot;)" fill="none"><rect width="1000" height="300" x="0" y="0" fill="url(#SvgjsLinearGradient1267)"></rect><path d="M-87.64 298.53L-87.64 298.53" stroke="#132e65" stroke-width="1.5"></path><path d="M-87.64 298.53L-70.54 461.29" stroke="#132e65" stroke-width="1.5"></path><path d="M-87.64 298.53L77.26 315.73" stroke="#132e65" stroke-width="1.5"></path><path d="M-87.64 298.53L65.43 196.26" stroke="#132e65" stroke-width="1.5"></path><path d="M-87.64 298.53L51.99 422.05" stroke="#132e65" stroke-width="1.5"></path><path d="M-70.54 461.29L-70.54 461.29" stroke="#132e65" stroke-width="1.5"></path><path d="M-70.54 461.29L51.99 422.05" stroke="#132e65" stroke-width="1.5"></path><path d="M65.43 196.26L65.43 196.26" stroke="#132e65" stroke-width="1.5"></path><path d="M65.43 196.26L77.26 315.73" stroke="#132e65" stroke-width="1.5"></path><path d="M65.43 196.26L210.57 192.34" stroke="#132e65" stroke-width="1.5"></path><path d="M65.43 196.26L166.96 318.18" stroke="#132e65" stroke-width="1.5"></path><path d="M77.26 315.73L77.26 315.73" stroke="#132e65" stroke-width="1.5"></path><path d="M77.26 315.73L166.96 318.18" stroke="#132e65" stroke-width="1.5"></path><path d="M77.26 315.73L51.99 422.05" stroke="#132e65" stroke-width="1.5"></path><path d="M77.26 315.73L210.07 413.87" stroke="#132e65" stroke-width="1.5"></path><path d="M77.26 315.73L210.57 192.34" stroke="#132e65" stroke-width="1.5"></path><path d="M51.99 422.05L51.99 422.05" stroke="#132e65" stroke-width="1.5"></path><path d="M51.99 422.05L166.96 318.18" stroke="#132e65" stroke-width="1.5"></path><path d="M210.57 192.34L210.57 192.34" stroke="#132e65" stroke-width="1.5"></path><path d="M210.57 192.34L291.23 182.02" stroke="#132e65" stroke-width="1.5"></path><path d="M210.57 192.34L166.96 318.18" stroke="#132e65" stroke-width="1.5"></path><path d="M166.96 318.18L166.96 318.18" stroke="#132e65" stroke-width="1.5"></path><path d="M166.96 318.18L210.07 413.87" stroke="#132e65" stroke-width="1.5"></path><path d="M166.96 318.18L287.19 418.75" stroke="#132e65" stroke-width="1.5"></path><path d="M210.07 413.87L210.07 413.87" stroke="#132e65" stroke-width="1.5"></path><path d="M210.07 413.87L287.19 418.75" stroke="#132e65" stroke-width="1.5"></path><path d="M210.07 413.87L51.99 422.05" stroke="#132e65" stroke-width="1.5"></path><path d="M291.23 182.02L291.23 182.02" stroke="#132e65" stroke-width="1.5"></path><path d="M291.23 182.02L411.4 205.89" stroke="#132e65" stroke-width="1.5"></path><path d="M291.23 182.02L166.96 318.18" stroke="#132e65" stroke-width="1.5"></path><path d="M287.19 418.75L287.19 418.75" stroke="#132e65" stroke-width="1.5"></path><path d="M411.4 205.89L411.4 205.89" stroke="#132e65" stroke-width="1.5"></path><path d="M455.45 335.71L455.45 335.71" stroke="#132e65" stroke-width="1.5"></path><path d="M455.45 335.71L555.24 313.81" stroke="#132e65" stroke-width="1.5"></path><path d="M455.45 335.71L411.4 205.89" stroke="#132e65" stroke-width="1.5"></path><path d="M555.24 313.81L555.24 313.81" stroke="#132e65" stroke-width="1.5"></path><path d="M555.24 313.81L671.84 296.73" stroke="#132e65" stroke-width="1.5"></path><path d="M555.24 313.81L585.86 431.93" stroke="#132e65" stroke-width="1.5"></path><path d="M555.24 313.81L411.4 205.89" stroke="#132e65" stroke-width="1.5"></path><path d="M555.24 313.81L693.22 430.96" stroke="#132e65" stroke-width="1.5"></path><path d="M585.86 431.93L585.86 431.93" stroke="#132e65" stroke-width="1.5"></path><path d="M585.86 431.93L693.22 430.96" stroke="#132e65" stroke-width="1.5"></path><path d="M585.86 431.93L671.84 296.73" stroke="#132e65" stroke-width="1.5"></path><path d="M585.86 431.93L455.45 335.71" stroke="#132e65" stroke-width="1.5"></path><path d="M585.86 431.93L810.15 430.47" stroke="#132e65" stroke-width="1.5"></path><path d="M707.91 -59.91L707.91 -59.91" stroke="#132e65" stroke-width="1.5"></path><path d="M707.91 -59.91L802.89 -84.47" stroke="#132e65" stroke-width="1.5"></path><path d="M707.91 -59.91L676.82 87.85" stroke="#132e65" stroke-width="1.5"></path><path d="M707.91 -59.91L815.28 77.54" stroke="#132e65" stroke-width="1.5"></path><path d="M707.91 -59.91L672.29 156.73" stroke="#132e65" stroke-width="1.5"></path><path d="M676.82 87.85L676.82 87.85" stroke="#132e65" stroke-width="1.5"></path><path d="M676.82 87.85L672.29 156.73" stroke="#132e65" stroke-width="1.5"></path><path d="M672.29 156.73L672.29 156.73" stroke="#132e65" stroke-width="1.5"></path><path d="M672.29 156.73L799.61 200.27" stroke="#132e65" stroke-width="1.5"></path><path d="M672.29 156.73L671.84 296.73" stroke="#132e65" stroke-width="1.5"></path><path d="M672.29 156.73L815.28 77.54" stroke="#132e65" stroke-width="1.5"></path><path d="M671.84 296.73L671.84 296.73" stroke="#132e65" stroke-width="1.5"></path><path d="M671.84 296.73L693.22 430.96" stroke="#132e65" stroke-width="1.5"></path><path d="M693.22 430.96L693.22 430.96" stroke="#132e65" stroke-width="1.5"></path><path d="M693.22 430.96L810.15 430.47" stroke="#132e65" stroke-width="1.5"></path><path d="M693.22 430.96L829.62 297.19" stroke="#132e65" stroke-width="1.5"></path><path d="M802.89 -84.47L802.89 -84.47" stroke="#132e65" stroke-width="1.5"></path><path d="M802.89 -84.47L929.54 -59.15" stroke="#132e65" stroke-width="1.5"></path><path d="M815.28 77.54L815.28 77.54" stroke="#132e65" stroke-width="1.5"></path><path d="M815.28 77.54L909.98 81.84" stroke="#132e65" stroke-width="1.5"></path><path d="M815.28 77.54L799.61 200.27" stroke="#132e65" stroke-width="1.5"></path><path d="M815.28 77.54L676.82 87.85" stroke="#132e65" stroke-width="1.5"></path><path d="M815.28 77.54L802.89 -84.47" stroke="#132e65" stroke-width="1.5"></path><path d="M799.61 200.27L799.61 200.27" stroke="#132e65" stroke-width="1.5"></path><path d="M799.61 200.27L829.62 297.19" stroke="#132e65" stroke-width="1.5"></path><path d="M799.61 200.27L943.05 202.9" stroke="#132e65" stroke-width="1.5"></path><path d="M799.61 200.27L671.84 296.73" stroke="#132e65" stroke-width="1.5"></path><path d="M829.62 297.19L829.62 297.19" stroke="#132e65" stroke-width="1.5"></path><path d="M829.62 297.19L912.89 341.8" stroke="#132e65" stroke-width="1.5"></path><path d="M829.62 297.19L810.15 430.47" stroke="#132e65" stroke-width="1.5"></path><path d="M829.62 297.19L943.05 202.9" stroke="#132e65" stroke-width="1.5"></path><path d="M829.62 297.19L671.84 296.73" stroke="#132e65" stroke-width="1.5"></path><path d="M810.15 430.47L810.15 430.47" stroke="#132e65" stroke-width="1.5"></path><path d="M810.15 430.47L912.89 341.8" stroke="#132e65" stroke-width="1.5"></path><path d="M810.15 430.47L671.84 296.73" stroke="#132e65" stroke-width="1.5"></path><path d="M810.15 430.47L799.61 200.27" stroke="#132e65" stroke-width="1.5"></path><path d="M929.54 -59.15L929.54 -59.15" stroke="#132e65" stroke-width="1.5"></path><path d="M929.54 -59.15L909.98 81.84" stroke="#132e65" stroke-width="1.5"></path><path d="M909.98 81.84L909.98 81.84" stroke="#132e65" stroke-width="1.5"></path><path d="M943.05 202.9L943.05 202.9" stroke="#132e65" stroke-width="1.5"></path><path d="M943.05 202.9L909.98 81.84" stroke="#132e65" stroke-width="1.5"></path><path d="M943.05 202.9L912.89 341.8" stroke="#132e65" stroke-width="1.5"></path><path d="M943.05 202.9L1089.45 210.42" stroke="#132e65" stroke-width="1.5"></path><path d="M912.89 341.8L912.89 341.8" stroke="#132e65" stroke-width="1.5"></path><path d="M912.89 341.8L1044.32 429.79" stroke="#132e65" stroke-width="1.5"></path><path d="M1071.71 -40.6L1071.71 -40.6" stroke="#132e65" stroke-width="1.5"></path><path d="M1071.71 -40.6L1037.83 36.2" stroke="#132e65" stroke-width="1.5"></path><path d="M1071.71 -40.6L929.54 -59.15" stroke="#132e65" stroke-width="1.5"></path><path d="M1071.71 -40.6L909.98 81.84" stroke="#132e65" stroke-width="1.5"></path><path d="M1071.71 -40.6L1089.45 210.42" stroke="#132e65" stroke-width="1.5"></path><path d="M1071.71 -40.6L802.89 -84.47" stroke="#132e65" stroke-width="1.5"></path><path d="M1071.71 -40.6L943.05 202.9" stroke="#132e65" stroke-width="1.5"></path><path d="M1037.83 36.2L1037.83 36.2" stroke="#132e65" stroke-width="1.5"></path><path d="M1037.83 36.2L909.98 81.84" stroke="#132e65" stroke-width="1.5"></path><path d="M1089.45 210.42L1089.45 210.42" stroke="#132e65" stroke-width="1.5"></path><path d="M1089.45 210.42L1068.08 295.62" stroke="#132e65" stroke-width="1.5"></path><path d="M1089.45 210.42L1037.83 36.2" stroke="#132e65" stroke-width="1.5"></path><path d="M1089.45 210.42L912.89 341.8" stroke="#132e65" stroke-width="1.5"></path><path d="M1068.08 295.62L1068.08 295.62" stroke="#132e65" stroke-width="1.5"></path><path d="M1068.08 295.62L1044.32 429.79" stroke="#132e65" stroke-width="1.5"></path><path d="M1068.08 295.62L943.05 202.9" stroke="#132e65" stroke-width="1.5"></path><path d="M1044.32 429.79L1044.32 429.79" stroke="#132e65" stroke-width="1.5"></path><path d="M1044.32 429.79L1089.45 210.42" stroke="#132e65" stroke-width="1.5"></path><circle r="5" cx="-87.64" cy="298.53" fill="#132e65"></circle><circle r="5" cx="-70.54" cy="461.29" fill="#132e65"></circle><circle r="5" cx="65.43" cy="196.26" fill="#132e65"></circle><circle r="5" cx="77.26" cy="315.73" fill="#132e65"></circle><circle r="5" cx="51.99" cy="422.05" fill="#132e65"></circle><circle r="5" cx="210.57" cy="192.34" fill="#132e65"></circle><circle r="5" cx="166.96" cy="318.18" fill="#132e65"></circle><circle r="5" cx="210.07" cy="413.87" fill="#132e65"></circle><circle r="5" cx="291.23" cy="182.02" fill="#132e65"></circle><circle r="5" cx="287.19" cy="418.75" fill="#132e65"></circle><circle r="5" cx="411.4" cy="205.89" fill="#132e65"></circle><circle r="5" cx="455.45" cy="335.71" fill="#132e65"></circle><circle r="5" cx="555.24" cy="313.81" fill="#132e65"></circle><circle r="5" cx="585.86" cy="431.93" fill="#132e65"></circle><circle r="5" cx="707.91" cy="-59.91" fill="#132e65"></circle><circle r="5" cx="676.82" cy="87.85" fill="#132e65"></circle><circle r="5" cx="672.29" cy="156.73" fill="#132e65"></circle><circle r="5" cx="671.84" cy="296.73" fill="#132e65"></circle><circle r="5" cx="693.22" cy="430.96" fill="#132e65"></circle><circle r="5" cx="802.89" cy="-84.47" fill="#132e65"></circle><circle r="5" cx="815.28" cy="77.54" fill="#132e65"></circle><circle r="5" cx="799.61" cy="200.27" fill="#132e65"></circle><circle r="5" cx="829.62" cy="297.19" fill="#132e65"></circle><circle r="5" cx="810.15" cy="430.47" fill="#132e65"></circle><circle r="5" cx="929.54" cy="-59.15" fill="#132e65"></circle><circle r="5" cx="909.98" cy="81.84" fill="#132e65"></circle><circle r="5" cx="943.05" cy="202.9" fill="#132e65"></circle><circle r="5" cx="912.89" cy="341.8" fill="#132e65"></circle><circle r="5" cx="1071.71" cy="-40.6" fill="#132e65"></circle><circle r="5" cx="1037.83" cy="36.2" fill="#132e65"></circle><circle r="5" cx="1089.45" cy="210.42" fill="#132e65"></circle><circle r="5" cx="1068.08" cy="295.62" fill="#132e65"></circle><circle r="5" cx="1044.32" cy="429.79" fill="#132e65"></circle><path d="M58.7 422.69L58.7 422.69" stroke="hsl(228.5, 77.2%, 51.5%)" stroke-width="1.5"></path><path d="M58.7 422.69L-33.33 421.81" stroke="hsl(228.5, 77.2%, 51.5%)" stroke-width="1.5"></path><path d="M338.89 446.5L338.89 446.5" stroke="hsl(228.5, 77.2%, 51.5%)" stroke-width="1.5"></path><path d="M338.89 446.5L409.48 440.6" stroke="hsl(228.5, 77.2%, 51.5%)" stroke-width="1.5"></path><path d="M338.89 446.5L213.74 446.3" stroke="hsl(228.5, 77.2%, 51.5%)" stroke-width="1.5"></path><path d="M338.89 446.5L215.79 343.22" stroke="hsl(228.5, 77.2%, 51.5%)" stroke-width="1.5"></path><path d="M793.83 281.78L793.83 281.78" stroke="hsl(228.5, 77.2%, 51.5%)" stroke-width="1.5"></path><path d="M793.83 281.78L705.5 342.34" stroke="hsl(228.5, 77.2%, 51.5%)" stroke-width="1.5"></path><path d="M793.83 281.78L808.38 165.43" stroke="hsl(228.5, 77.2%, 51.5%)" stroke-width="1.5"></path><path d="M793.83 281.78L714.3 174.83" stroke="hsl(228.5, 77.2%, 51.5%)" stroke-width="1.5"></path><path d="M793.83 281.78L956.23 311.96" stroke="hsl(228.5, 77.2%, 51.5%)" stroke-width="1.5"></path><path d="M793.83 281.78L804.1 458.05" stroke="hsl(228.5, 77.2%, 51.5%)" stroke-width="1.5"></path><path d="M793.83 281.78L928.25 159.1" stroke="hsl(228.5, 77.2%, 51.5%)" stroke-width="1.5"></path><path d="M925.85 -45.09L925.85 -45.09" stroke="hsl(228.5, 77.2%, 51.5%)" stroke-width="1.5"></path><path d="M925.85 -45.09L1053.08 -79.22" stroke="hsl(228.5, 77.2%, 51.5%)" stroke-width="1.5"></path><path d="M925.85 -45.09L959.18 93.74" stroke="hsl(228.5, 77.2%, 51.5%)" stroke-width="1.5"></path><path d="M925.85 -45.09L789.4 64.15" stroke="hsl(228.5, 77.2%, 51.5%)" stroke-width="1.5"></path><path d="M959.18 93.74L959.18 93.74" stroke="hsl(228.5, 77.2%, 51.5%)" stroke-width="1.5"></path><path d="M959.18 93.74L928.25 159.1" stroke="hsl(228.5, 77.2%, 51.5%)" stroke-width="1.5"></path><path d="M-38.58 322.21L-38.58 322.21" stroke="hsl(228.5, 77.2%, 51.5%)" stroke-width="1.5"></path><path d="M-38.58 322.21L-33.33 421.81" stroke="hsl(228.5, 77.2%, 51.5%)" stroke-width="1.5"></path><path d="M-38.58 322.21L69.37 322.9" stroke="hsl(228.5, 77.2%, 51.5%)" stroke-width="1.5"></path><path d="M-38.58 322.21L58.7 422.69" stroke="hsl(228.5, 77.2%, 51.5%)" stroke-width="1.5"></path><path d="M-38.58 322.21L215.79 343.22" stroke="hsl(228.5, 77.2%, 51.5%)" stroke-width="1.5"></path><path d="M-33.33 421.81L-33.33 421.81" stroke="hsl(228.5, 77.2%, 51.5%)" stroke-width="1.5"></path><path d="M69.37 322.9L69.37 322.9" stroke="hsl(228.5, 77.2%, 51.5%)" stroke-width="1.5"></path><path d="M69.37 322.9L58.7 422.69" stroke="hsl(228.5, 77.2%, 51.5%)" stroke-width="1.5"></path><path d="M215.79 343.22L215.79 343.22" stroke="hsl(228.5, 77.2%, 51.5%)" stroke-width="1.5"></path><path d="M215.79 343.22L213.74 446.3" stroke="hsl(228.5, 77.2%, 51.5%)" stroke-width="1.5"></path><path d="M215.79 343.22L321.03 281.54" stroke="hsl(228.5, 77.2%, 51.5%)" stroke-width="1.5"></path><path d="M215.79 343.22L69.37 322.9" stroke="hsl(228.5, 77.2%, 51.5%)" stroke-width="1.5"></path><path d="M213.74 446.3L213.74 446.3" stroke="hsl(228.5, 77.2%, 51.5%)" stroke-width="1.5"></path><path d="M213.74 446.3L58.7 422.69" stroke="hsl(228.5, 77.2%, 51.5%)" stroke-width="1.5"></path><path d="M213.74 446.3L69.37 322.9" stroke="hsl(228.5, 77.2%, 51.5%)" stroke-width="1.5"></path><path d="M213.74 446.3L409.48 440.6" stroke="hsl(228.5, 77.2%, 51.5%)" stroke-width="1.5"></path><path d="M321.03 281.54L321.03 281.54" stroke="hsl(228.5, 77.2%, 51.5%)" stroke-width="1.5"></path><path d="M321.03 281.54L408.42 286.26" stroke="hsl(228.5, 77.2%, 51.5%)" stroke-width="1.5"></path><path d="M321.03 281.54L338.89 446.5" stroke="hsl(228.5, 77.2%, 51.5%)" stroke-width="1.5"></path><path d="M408.42 286.26L408.42 286.26" stroke="hsl(228.5, 77.2%, 51.5%)" stroke-width="1.5"></path><path d="M408.42 286.26L409.48 440.6" stroke="hsl(228.5, 77.2%, 51.5%)" stroke-width="1.5"></path><path d="M408.42 286.26L338.89 446.5" stroke="hsl(228.5, 77.2%, 51.5%)" stroke-width="1.5"></path><path d="M408.42 286.26L588.14 298.66" stroke="hsl(228.5, 77.2%, 51.5%)" stroke-width="1.5"></path><path d="M408.42 286.26L215.79 343.22" stroke="hsl(228.5, 77.2%, 51.5%)" stroke-width="1.5"></path><path d="M408.42 286.26L564.89 433.22" stroke="hsl(228.5, 77.2%, 51.5%)" stroke-width="1.5"></path><path d="M409.48 440.6L409.48 440.6" stroke="hsl(228.5, 77.2%, 51.5%)" stroke-width="1.5"></path><path d="M409.48 440.6L564.89 433.22" stroke="hsl(228.5, 77.2%, 51.5%)" stroke-width="1.5"></path><path d="M409.48 440.6L321.03 281.54" stroke="hsl(228.5, 77.2%, 51.5%)" stroke-width="1.5"></path><path d="M409.48 440.6L215.79 343.22" stroke="hsl(228.5, 77.2%, 51.5%)" stroke-width="1.5"></path><path d="M588.14 298.66L588.14 298.66" stroke="hsl(228.5, 77.2%, 51.5%)" stroke-width="1.5"></path><path d="M588.14 298.66L705.5 342.34" stroke="hsl(228.5, 77.2%, 51.5%)" stroke-width="1.5"></path><path d="M588.14 298.66L564.89 433.22" stroke="hsl(228.5, 77.2%, 51.5%)" stroke-width="1.5"></path><path d="M588.14 298.66L714.3 174.83" stroke="hsl(228.5, 77.2%, 51.5%)" stroke-width="1.5"></path><path d="M588.14 298.66L694.25 466.56" stroke="hsl(228.5, 77.2%, 51.5%)" stroke-width="1.5"></path><path d="M564.89 433.22L564.89 433.22" stroke="hsl(228.5, 77.2%, 51.5%)" stroke-width="1.5"></path><path d="M564.89 433.22L694.25 466.56" stroke="hsl(228.5, 77.2%, 51.5%)" stroke-width="1.5"></path><path d="M564.89 433.22L705.5 342.34" stroke="hsl(228.5, 77.2%, 51.5%)" stroke-width="1.5"></path><path d="M564.89 433.22L338.89 446.5" stroke="hsl(228.5, 77.2%, 51.5%)" stroke-width="1.5"></path><path d="M714.3 174.83L714.3 174.83" stroke="hsl(228.5, 77.2%, 51.5%)" stroke-width="1.5"></path><path d="M714.3 174.83L808.38 165.43" stroke="hsl(228.5, 77.2%, 51.5%)" stroke-width="1.5"></path><path d="M714.3 174.83L789.4 64.15" stroke="hsl(228.5, 77.2%, 51.5%)" stroke-width="1.5"></path><path d="M714.3 174.83L705.5 342.34" stroke="hsl(228.5, 77.2%, 51.5%)" stroke-width="1.5"></path><path d="M714.3 174.83L928.25 159.1" stroke="hsl(228.5, 77.2%, 51.5%)" stroke-width="1.5"></path><path d="M705.5 342.34L705.5 342.34" stroke="hsl(228.5, 77.2%, 51.5%)" stroke-width="1.5"></path><path d="M705.5 342.34L694.25 466.56" stroke="hsl(228.5, 77.2%, 51.5%)" stroke-width="1.5"></path><path d="M694.25 466.56L694.25 466.56" stroke="hsl(228.5, 77.2%, 51.5%)" stroke-width="1.5"></path><path d="M694.25 466.56L804.1 458.05" stroke="hsl(228.5, 77.2%, 51.5%)" stroke-width="1.5"></path><path d="M789.4 64.15L789.4 64.15" stroke="hsl(228.5, 77.2%, 51.5%)" stroke-width="1.5"></path><path d="M789.4 64.15L808.38 165.43" stroke="hsl(228.5, 77.2%, 51.5%)" stroke-width="1.5"></path><path d="M789.4 64.15L928.25 159.1" stroke="hsl(228.5, 77.2%, 51.5%)" stroke-width="1.5"></path><path d="M789.4 64.15L959.18 93.74" stroke="hsl(228.5, 77.2%, 51.5%)" stroke-width="1.5"></path><path d="M808.38 165.43L808.38 165.43" stroke="hsl(228.5, 77.2%, 51.5%)" stroke-width="1.5"></path><path d="M804.1 458.05L804.1 458.05" stroke="hsl(228.5, 77.2%, 51.5%)" stroke-width="1.5"></path><path d="M804.1 458.05L928.02 406.93" stroke="hsl(228.5, 77.2%, 51.5%)" stroke-width="1.5"></path><path d="M804.1 458.05L705.5 342.34" stroke="hsl(228.5, 77.2%, 51.5%)" stroke-width="1.5"></path><path d="M804.1 458.05L956.23 311.96" stroke="hsl(228.5, 77.2%, 51.5%)" stroke-width="1.5"></path><path d="M804.1 458.05L564.89 433.22" stroke="hsl(228.5, 77.2%, 51.5%)" stroke-width="1.5"></path><path d="M928.25 159.1L928.25 159.1" stroke="hsl(228.5, 77.2%, 51.5%)" stroke-width="1.5"></path><path d="M928.25 159.1L808.38 165.43" stroke="hsl(228.5, 77.2%, 51.5%)" stroke-width="1.5"></path><path d="M928.25 159.1L956.23 311.96" stroke="hsl(228.5, 77.2%, 51.5%)" stroke-width="1.5"></path><path d="M928.25 159.1L1089.25 177.06" stroke="hsl(228.5, 77.2%, 51.5%)" stroke-width="1.5"></path><path d="M956.23 311.96L956.23 311.96" stroke="hsl(228.5, 77.2%, 51.5%)" stroke-width="1.5"></path><path d="M956.23 311.96L928.02 406.93" stroke="hsl(228.5, 77.2%, 51.5%)" stroke-width="1.5"></path><path d="M956.23 311.96L1067.71 310.51" stroke="hsl(228.5, 77.2%, 51.5%)" stroke-width="1.5"></path><path d="M956.23 311.96L1089.25 177.06" stroke="hsl(228.5, 77.2%, 51.5%)" stroke-width="1.5"></path><path d="M928.02 406.93L928.02 406.93" stroke="hsl(228.5, 77.2%, 51.5%)" stroke-width="1.5"></path><path d="M928.02 406.93L1067.71 310.51" stroke="hsl(228.5, 77.2%, 51.5%)" stroke-width="1.5"></path><path d="M1053.08 -79.22L1053.08 -79.22" stroke="hsl(228.5, 77.2%, 51.5%)" stroke-width="1.5"></path><path d="M1053.08 -79.22L959.18 93.74" stroke="hsl(228.5, 77.2%, 51.5%)" stroke-width="1.5"></path><path d="M1053.08 -79.22L1089.25 177.06" stroke="hsl(228.5, 77.2%, 51.5%)" stroke-width="1.5"></path><path d="M1089.25 177.06L1089.25 177.06" stroke="hsl(228.5, 77.2%, 51.5%)" stroke-width="1.5"></path><path d="M1089.25 177.06L1067.71 310.51" stroke="hsl(228.5, 77.2%, 51.5%)" stroke-width="1.5"></path><path d="M1089.25 177.06L959.18 93.74" stroke="hsl(228.5, 77.2%, 51.5%)" stroke-width="1.5"></path><path d="M1067.71 310.51L1067.71 310.51" stroke="hsl(228.5, 77.2%, 51.5%)" stroke-width="1.5"></path><path d="M1067.71 310.51L1090.72 465.13" stroke="hsl(228.5, 77.2%, 51.5%)" stroke-width="1.5"></path><path d="M1067.71 310.51L928.25 159.1" stroke="hsl(228.5, 77.2%, 51.5%)" stroke-width="1.5"></path><path d="M1090.72 465.13L1090.72 465.13" stroke="hsl(228.5, 77.2%, 51.5%)" stroke-width="1.5"></path><path d="M1090.72 465.13L928.02 406.93" stroke="hsl(228.5, 77.2%, 51.5%)" stroke-width="1.5"></path><path d="M1090.72 465.13L956.23 311.96" stroke="hsl(228.5, 77.2%, 51.5%)" stroke-width="1.5"></path><path d="M1090.72 465.13L804.1 458.05" stroke="hsl(228.5, 77.2%, 51.5%)" stroke-width="1.5"></path><path d="M1090.72 465.13L1089.25 177.06" stroke="hsl(228.5, 77.2%, 51.5%)" stroke-width="1.5"></path><circle r="25" cx="58.7" cy="422.69" fill="url(#SvgjsRadialGradient1268)"></circle><circle r="25" cx="338.89" cy="446.5" fill="url(#SvgjsRadialGradient1268)"></circle><circle r="25" cx="793.83" cy="281.78" fill="url(#SvgjsRadialGradient1268)"></circle><circle r="25" cx="925.85" cy="-45.09" fill="url(#SvgjsRadialGradient1268)"></circle><circle r="25" cx="959.18" cy="93.74" fill="url(#SvgjsRadialGradient1268)"></circle><circle r="5" cx="-38.58" cy="322.21" fill="#8b9ad9"></circle><circle r="5" cx="-33.33" cy="421.81" fill="#8b9ad9"></circle><circle r="5" cx="69.37" cy="322.9" fill="#8b9ad9"></circle><circle r="5" cx="215.79" cy="343.22" fill="#8b9ad9"></circle><circle r="5" cx="213.74" cy="446.3" fill="#8b9ad9"></circle><circle r="5" cx="321.03" cy="281.54" fill="#8b9ad9"></circle><circle r="5" cx="408.42" cy="286.26" fill="#8b9ad9"></circle><circle r="5" cx="409.48" cy="440.6" fill="#8b9ad9"></circle><circle r="5" cx="588.14" cy="298.66" fill="#8b9ad9"></circle><circle r="5" cx="564.89" cy="433.22" fill="#8b9ad9"></circle><circle r="5" cx="714.3" cy="174.83" fill="#8b9ad9"></circle><circle r="5" cx="705.5" cy="342.34" fill="#8b9ad9"></circle><circle r="5" cx="694.25" cy="466.56" fill="#8b9ad9"></circle><circle r="5" cx="789.4" cy="64.15" fill="#8b9ad9"></circle><circle r="5" cx="808.38" cy="165.43" fill="#8b9ad9"></circle><circle r="5" cx="804.1" cy="458.05" fill="#8b9ad9"></circle><circle r="5" cx="928.25" cy="159.1" fill="#8b9ad9"></circle><circle r="5" cx="956.23" cy="311.96" fill="#8b9ad9"></circle><circle r="5" cx="928.02" cy="406.93" fill="#8b9ad9"></circle><circle r="5" cx="1053.08" cy="-79.22" fill="#8b9ad9"></circle><circle r="5" cx="1089.25" cy="177.06" fill="#8b9ad9"></circle><circle r="5" cx="1067.71" cy="310.51" fill="#8b9ad9"></circle><circle r="5" cx="1090.72" cy="465.13" fill="#8b9ad9"></circle></g><defs><mask id="SvgjsMask1266"><rect width="1000" height="300" fill="#ffffff"></rect></mask><linearGradient x1="50%" y1="0%" x2="50%" y2="100%" gradientUnits="userSpaceOnUse" id="SvgjsLinearGradient1267"><stop stop-color="#0e2a47" offset="0"></stop><stop stop-color="rgba(252, 21, 3, 1)" offset="1"></stop></linearGradient><radialGradient id="SvgjsRadialGradient1268"><stop stop-color="#ffffff" offset="0.1"></stop><stop stop-color="#1735b3" offset="0.2"></stop><stop stop-color="rgba(23, 53, 179, 0)" offset="1"></stop></radialGradient></defs></svg>